<?xml version="1.0" encoding="UTF-8"?>
<!DOCTYPE svg PUBLIC "-//W3C//DTD SVG 1.1//EN" "http://www.w3.org/Graphics/SVG/1.1/DTD/svg11.dtd">
<!-- Creator: CorelDRAW 2021 (64-Bit) -->
<svg xmlns="http://www.w3.org/2000/svg" xml:space="preserve" width="500mm" height="180mm" version="1.1" style="shape-rendering:geometricPrecision; text-rendering:geometricPrecision; image-rendering:optimizeQuality; fill-rule:evenodd; clip-rule:evenodd"
viewBox="0 0 50000 18000"
 xmlns:xlink="http://www.w3.org/1999/xlink"
 xmlns:xodm="http://www.corel.com/coreldraw/odm/2003">
 <defs>
  <style type="text/css">
   <![CDATA[
    .str5 {stroke:#B42322;stroke-width:50;stroke-miterlimit:22.9256}
    .str4 {stroke:#A12A3F;stroke-width:50;stroke-miterlimit:22.9256}
    .str7 {stroke:#5B3273;stroke-width:50;stroke-miterlimit:22.9256}
    .str6 {stroke:#543085;stroke-width:50;stroke-miterlimit:22.9256}
    .str3 {stroke:#4C3185;stroke-width:50;stroke-miterlimit:22.9256}
    .str2 {stroke:#052FBE;stroke-width:50;stroke-miterlimit:22.9256}
    .str0 {stroke:#052FBE;stroke-width:150;stroke-miterlimit:22.9256}
    .str1 {stroke:#052FBE;stroke-width:50;stroke-linejoin:round;stroke-miterlimit:22.9256}
    .fil2 {fill:none}
    .fil1 {fill:#052FBE;fill-rule:nonzero}
    .fil4 {fill:url(#id0);fill-rule:nonzero}
    .fil5 {fill:url(#id1);fill-rule:nonzero}
    .fil3 {fill:url(#id2);fill-rule:nonzero}
    .fil0 {fill:url(#id3);fill-rule:nonzero}
    .fil8 {fill:url(#id4);fill-opacity:0.901961}
    .fil6 {fill:url(#id5)}
    .fil7 {fill:url(#id6)}
   ]]>
  </style>
  <linearGradient id="id0" gradientUnits="userSpaceOnUse" x1="30658.9" y1="9561.87" x2="32471.47" y2="8724.35">
   <stop offset="0" style="stop-opacity:1; stop-color:#B42322"/>
   <stop offset="1" style="stop-opacity:1; stop-color:#052FBE"/>
  </linearGradient>
  <linearGradient id="id1" gradientUnits="userSpaceOnUse" x1="30726.03" y1="14450.9" x2="31680.98" y2="14450.9">
   <stop offset="0" style="stop-opacity:1; stop-color:#3E3183"/>
   <stop offset="1" style="stop-opacity:0; stop-color:#052FBE"/>
  </linearGradient>
  <linearGradient id="id2" gradientUnits="userSpaceOnUse" x1="39769.47" y1="3946.54" x2="37401.36" y2="7226.56">
   <stop offset="0" style="stop-opacity:1; stop-color:#B42322"/>
   <stop offset="0.160784" style="stop-opacity:1; stop-color:#832A53"/>
   <stop offset="0.270588" style="stop-opacity:1; stop-color:#523185"/>
   <stop offset="1" style="stop-opacity:1; stop-color:#052FBE"/>
  </linearGradient>
  <linearGradient id="id3" gradientUnits="userSpaceOnUse" x1="1270.19" y1="11768.45" x2="29997.11" y2="11768.45">
   <stop offset="0" style="stop-opacity:1; stop-color:#142AC1"/>
   <stop offset="0.431373" style="stop-opacity:1; stop-color:#413182"/>
   <stop offset="0.694118" style="stop-opacity:1; stop-color:#6D2D6A"/>
   <stop offset="1" style="stop-opacity:1; stop-color:#992951"/>
  </linearGradient>
  <linearGradient id="id4" gradientUnits="userSpaceOnUse" x1="26158.37" y1="6322.24" x2="30116.79" y2="9516.31">
   <stop offset="0" style="stop-opacity:1; stop-color:#052FBE"/>
   <stop offset="0.705882" style="stop-opacity:1; stop-color:#2132A3"/>
   <stop offset="0.811765" style="stop-opacity:1; stop-color:#3E3588"/>
   <stop offset="0.894118" style="stop-opacity:1; stop-color:#78325D"/>
   <stop offset="1" style="stop-opacity:1; stop-color:#B22E31"/>
  </linearGradient>
  <linearGradient id="id5" gradientUnits="userSpaceOnUse" x1="24596.13" y1="3467.69" x2="26953.43" y2="14681.63">
   <stop offset="0" style="stop-opacity:1; stop-color:#B42322"/>
   <stop offset="0.0784314" style="stop-opacity:1; stop-color:#7A2C55"/>
   <stop offset="0.168627" style="stop-opacity:1; stop-color:#403689"/>
   <stop offset="0.701961" style="stop-opacity:1; stop-color:#052FBE"/>
   <stop offset="0.921569" style="stop-opacity:1; stop-color:#2130A1"/>
   <stop offset="1" style="stop-opacity:1; stop-color:#3E3183"/>
  </linearGradient>
  <linearGradient id="id6" gradientUnits="userSpaceOnUse" x1="26735.57" y1="5657.1" x2="30945.89" y2="9072.39">
   <stop offset="0" style="stop-opacity:1; stop-color:#36306E"/>
   <stop offset="0.396078" style="stop-opacity:1; stop-color:#292C73"/>
   <stop offset="0.45098" style="stop-opacity:1; stop-color:#1C2878"/>
   <stop offset="1" style="stop-opacity:1; stop-color:#0B2687"/>
  </linearGradient>
 </defs>
 <g id="Слой_x0020_1">
  <metadata id="CorelCorpID_0Corel-Layer"/>
  <path class="fil0" d="M1563.66 11599.28l0 -2648.48 58.57 0 1597.18 1496.94 0 -1413.61 565.2 0 0 2662.97 -53.15 0 -1602.6 -1496.93 0 1399.11 -565.2 0zm2814.54 0l0 -2565.15 612.3 0 0 2565.15 -612.3 0zm1210.11 0l0 -2565.15 605.05 0 0 1116.51 847.2 -1116.51 728.84 0 -967.36 1220.38 1043.45 1344.77 -739.11 0 -913.02 -1181.73 0 1181.73 -605.05 0zm2962.45 -815.2l673.89 0 -332.72 -803.12 -341.17 803.12zm-960.12 815.2l1308.53 -2644.85 38.66 0 1279.55 2644.85 -640.69 0 -162.44 -373.18 -1041.02 0 -166.06 373.18 -616.53 0zm2818.76 0l0 -2565.15 1594.15 0 0 521.73 -985.47 0 0 510.85 880.41 0 0 518.1 -880.41 0 0 1014.47 -608.68 0zm2466.72 -1282.57c0,222.8 65.21,410 195.64,560.38 130.44,150.34 291.05,225.82 481.87,225.82 192.03,0 353.27,-74.88 483.07,-224.63 129.83,-150.37 194.45,-337.54 194.45,-561.57 0,-225.23 -64.62,-413.63 -194.45,-564.01 -129.8,-150.34 -291.04,-225.83 -483.07,-225.83 -190.82,0 -351.43,75.49 -481.87,225.83 -130.43,150.38 -195.64,338.78 -195.64,564.01zm-630.42 0c0,-190.23 32.61,-367.76 98.42,-533.2 65.22,-166.06 161.84,-314.01 289.25,-445.04 120.16,-125.01 260.26,-221 419.68,-287.42 158.82,-67.04 326.08,-100.25 500.58,-100.25 174.51,0 341.77,33.81 501.81,100.85 160.02,67.01 301.92,164.24 425.7,290.45 125.01,126.21 219.81,271.73 283.8,437.79 64.62,165.44 96.63,344.79 96.63,536.82 0,160.61 -22.34,311.58 -67.02,452.88 -45.3,141.3 -111.71,270.53 -200.49,387.67 -124.99,166.06 -278.38,295.27 -460.73,387.07 -182.36,92.38 -375.61,138.28 -579.7,138.28 -173.3,0 -339.37,-33.81 -498.16,-100.85 -158.81,-67.01 -299.51,-164.24 -422.1,-290.45 -127.41,-130.43 -224.03,-278.37 -289.25,-443.21 -65.81,-164.26 -98.42,-341.8 -98.42,-531.39zm3737.82 -815.2l-100.84 0 0 710.13 129.23 0c154.56,0 272.33,-31.41 353.83,-93.6 81.54,-62.2 121.99,-152.17 121.99,-268.71 0,-122.59 -39.26,-210.74 -118.36,-265.69 -79.08,-54.97 -207.72,-82.13 -385.85,-82.13zm-695.03 2097.77l0 -2565.15 659.4 0c211.34,0 375,13.9 491.54,41.66 116.54,27.78 219.18,73.68 309.16,138.9 95.4,68.24 169.69,152.77 222.21,253.62 52.55,100.84 78.51,207.11 78.51,318.83 0,161.81 -41.06,303.11 -123.19,424.5 -82.13,121.36 -200.47,216.18 -355.06,285.02l782.59 1102.62 -699.26 0 -684.76 -1007.22 -86.95 0 0 1007.22 -594.19 0zm4203.37 -1753.57c-111.12,-114.15 -223.43,-198.68 -336.94,-254.22 -114.12,-54.95 -233.68,-82.73 -358.69,-82.73 -216.79,0 -394.32,74.88 -531.99,224.63 -138.28,149.74 -207.12,342.37 -207.12,576.67 0,234.9 68.24,425.1 205.32,570.65 136.45,145.52 314.61,218.58 534.39,218.58 129.83,0 259.06,-27.19 388.27,-81.53 129.23,-54.35 257.86,-135.85 386.47,-244.55l-39.26 681.14c-109.89,74.26 -229.45,131.03 -359.88,169.69 -130.43,39.25 -265.68,58.57 -406.38,58.57 -150.97,0 -295.3,-23.54 -434.17,-70.64 -138.28,-47.13 -266.31,-117.16 -382.85,-208.94 -165.44,-129.83 -291.64,-288.05 -379.83,-475.22 -87.55,-186.6 -131.62,-390.7 -131.62,-611.1 0,-190.23 32.6,-368.36 97.22,-534.42 65.22,-166.04 159.42,-313.39 283.2,-440.79 125.01,-127.41 269.31,-224.63 433.57,-292.87 163.64,-67.64 336.35,-101.45 518.1,-101.45 144.33,0 281.37,19.91 412.43,60.39 131.03,39.86 256.01,100.82 374.98,182.36l-65.22 655.78zm477.65 1753.57l0 -2565.15 1579.66 0 0 528.97 -985.48 0 0 463.76 844.18 0 0 525.35 -844.18 0 0 507.23 999.97 0 0 539.84 -1594.15 0z"/>
  <g id="_1957670671920">
   <path class="fil1" d="M41389.94 9490.19l-1688.04 0 0 1666.41 1688.04 0 0 -420.56 218.43 72.65 0 59.59c0,190.49 -33.65,322.26 -100.2,390.91 -66.65,67.88 -194.5,102.2 -382.8,102.2l-1167.1 0c-189.06,0 -318.25,-34.32 -386.8,-103.63 -67.98,-68.56 -102.31,-198.41 -102.31,-389.48l0 -1097.78c0,-189.73 34.33,-319.59 102.31,-388.14 68.55,-69.32 197.74,-103.64 386.8,-103.64l1167.1 0c188.3,0 316.15,34.32 382.8,102.3 66.55,68.56 100.2,198.41 100.2,389.48l0 0 -218.43 -21.64 0 -258.67zm1296.19 1680.71l1592.23 0 222.91 114.51 208.61 -114.51 130.71 -203.94 -130.71 -190.5 0 -1300.47 -2023.75 0 0 1694.91zm-189.83 -1401.07c0,-188.39 33.66,-317.58 101.64,-386.8 67.88,-69.32 197.07,-104.31 387.47,-104.31l1439.49 0c188.4,0 316.16,34.32 383.47,102.97 67.98,69.22 101.54,198.41 101.54,388.14l0 1097.78c0,192.4 -33.56,322.93 -101.54,390.91 -67.31,68.55 -195.07,102.87 -383.47,102.87l-1439.49 0c-190.4,0 -319.59,-34.99 -387.47,-104.97 -67.98,-69.22 -101.64,-199.08 -101.64,-388.81l0 -1097.78zm3635.9 -232.06l15.45 1823.62 -165.9 0 0 -2082.67 169.43 0 1111.89 1541.41 1015.88 -1541.41 190.21 0 0 2082.67 -175.91 0c0,-606.19 -4.48,-1203.13 15.54,-1809.42l-1006.06 1482.49 -88.86 0 -1081.67 -1496.69z"/>
   <path class="fil2 str0" d="M41487.22 9699.5c167.87,0 303.96,136.09 303.96,303.96 0,167.87 -136.09,303.96 -303.96,303.96 -167.87,0 -303.96,-136.09 -303.96,-303.96 0,-167.87 136.09,-303.96 303.96,-303.96z"/>
   <path class="fil2 str0" d="M44529.62 10678.82c167.87,0 303.96,136.09 303.96,303.96 0,167.87 -136.09,303.96 -303.96,303.96 -167.87,0 -303.96,-136.09 -303.96,-303.96 0,-167.87 136.09,-303.96 303.96,-303.96z"/>
  </g>
  <g id="_1957670671872">
   <path class="fil2 str1" d="M30743.22 14817.46l910.51 -741.99 -298.14 -977.75m21.89 -9.22l416.18 760.57 436.57 -426.71 -463.45 -734.64m25.89 -22.28l611.17 528.66 262.47 -360.96 -610.82 -499.11m15.26 -24.2l716.07 335.75 169.89 -356.62 -1504.5 -543.72 -21.36 -276.36 563.91 -904.04 -500.74 292.32 -311.13 550.13 11.09 -673.67 1085.46 -646.15 3267.41 -1617.97m110.17 -167.67l140.83 -2728.69m157.5 -139.8l2491.06 168.25m297.61 -16.02l1284.08 -227m-8119.18 3839.98l1500.37 -1676.78 2283.36 -1999.65m-5018.74 4886.69l439.89 -661.92 619.86 -398.83m33.16 -159.54l-492.42 -736.73 -580.82 2.77m5030.91 -2904.99l-1759.05 2740.89m6236.63 -3565.62l-1457.11 112.01m-5530.34 2318.13l2466.15 -1648.33m272.05 -112.8l2792.14 -557 1776.66 -1276.09m-9251.35 4893.8l1944.35 -1299.58 3794.51 -1009.19m279.64 24.11l2147.67 664.74m-7264.69 2647.23l1042.87 -2326.89 599.34 1129.21m-641.64 2276.07l-1000.57 -1078.39 69.13 1049m2443.75 -161.07l-743.35 -1814.06m-67.91 10.78l-141.07 1924.14m1291.38 -1005.7l275.9 728.09m282.64 -1701.45l-522.89 711.97m47.56 183.7l1009.66 464.07m3153.89 -3482.9l-575.86 -663.37m-240.49 -64.81l-1158.47 395.85m-80.35 185.43l1381.01 1762.7 -2830.14 397.51m-7.12 59.24l1668.09 665.27"/>
   <path class="fil2 str2" d="M35651.03 8301.68c64.19,0 116.23,52.04 116.23,116.24 0,64.19 -52.04,116.23 -116.23,116.23 -64.2,0 -116.24,-52.04 -116.24,-116.23 0,-64.2 52.04,-116.24 116.24,-116.24z"/>
   <path class="fil2 str2" d="M31321.68 12870.28c64.19,0 116.23,52.05 116.23,116.24 0,64.19 -52.04,116.24 -116.23,116.24 -64.2,0 -116.24,-52.05 -116.24,-116.24 0,-64.19 52.04,-116.24 116.24,-116.24z"/>
   <path class="fil2 str2" d="M31704.76 12473.17c64.19,0 116.23,52.04 116.23,116.23 0,64.2 -52.04,116.24 -116.23,116.24 -64.2,0 -116.24,-52.04 -116.24,-116.24 0,-64.19 52.04,-116.23 116.24,-116.23z"/>
   <path class="fil2 str2" d="M31965.49 12144.24c64.19,0 116.23,52.05 116.23,116.24 0,64.19 -52.04,116.24 -116.23,116.24 -64.2,0 -116.24,-52.05 -116.24,-116.24 0,-64.19 52.04,-116.24 116.24,-116.24z"/>
   <path class="fil2 str2" d="M39343.64 6370.31c64.19,0 116.23,52.04 116.23,116.23 0,64.2 -52.04,116.24 -116.23,116.24 -64.2,0 -116.24,-52.04 -116.24,-116.24 0,-64.19 52.04,-116.23 116.24,-116.23z"/>
   <path class="fil2 str2" d="M40326.56 4595.98c64.19,0 116.23,52.04 116.23,116.23 0,64.2 -52.04,116.24 -116.23,116.24 -64.2,0 -116.24,-52.04 -116.24,-116.24 0,-64.19 52.04,-116.23 116.24,-116.23z"/>
   <path class="fil2 str2" d="M38706.58 7924.75c64.19,0 116.24,52.04 116.24,116.24 0,64.19 -52.05,116.23 -116.24,116.23 -64.19,0 -116.24,-52.04 -116.24,-116.23 0,-64.2 52.05,-116.24 116.24,-116.24z"/>
   <path class="fil2 str2" d="M37537.76 9045.71c64.2,0 116.24,52.04 116.24,116.24 0,64.19 -52.04,116.23 -116.24,116.23 -64.19,0 -116.23,-52.04 -116.23,-116.23 0,-64.2 52.04,-116.24 116.23,-116.24z"/>
   <path class="fil2 str2" d="M36237.38 9810.64c64.19,0 116.23,52.04 116.23,116.24 0,64.19 -52.04,116.23 -116.23,116.23 -64.2,0 -116.24,-52.04 -116.24,-116.23 0,-64.2 52.04,-116.24 116.24,-116.24z"/>
   <path class="fil2 str2" d="M35337.28 10206.8c64.2,0 116.24,52.04 116.24,116.23 0,64.2 -52.04,116.24 -116.24,116.24 -64.19,0 -116.23,-52.04 -116.23,-116.24 0,-64.19 52.04,-116.23 116.23,-116.23z"/>
   <path class="fil2 str2" d="M34727.52 10376.8c64.2,0 116.24,52.04 116.24,116.23 0,64.2 -52.04,116.24 -116.24,116.24 -64.19,0 -116.23,-52.04 -116.23,-116.24 0,-64.19 52.04,-116.23 116.23,-116.23z"/>
   <path class="fil2 str2" d="M33721.79 10490.19c64.19,0 116.23,52.04 116.23,116.24 0,64.19 -52.04,116.23 -116.23,116.23 -64.2,0 -116.24,-52.04 -116.24,-116.23 0,-64.2 52.04,-116.24 116.24,-116.24z"/>
   <path class="fil2 str2" d="M33246.73 10533.31c64.2,0 116.24,52.05 116.24,116.24 0,64.19 -52.04,116.24 -116.24,116.24 -64.19,0 -116.23,-52.05 -116.23,-116.24 0,-64.19 52.04,-116.24 116.23,-116.24z"/>
   <path class="fil2 str2" d="M32248.52 10530.63c64.2,0 116.24,52.04 116.24,116.23 0,64.2 -52.04,116.24 -116.24,116.24 -64.19,0 -116.23,-52.04 -116.23,-116.24 0,-64.19 52.04,-116.23 116.23,-116.23z"/>
   <path class="fil2 str2" d="M35805.58 5273.11c82.91,0 150.12,67.21 150.12,150.11 0,82.91 -67.21,150.12 -150.12,150.12 -82.9,0 -150.11,-67.21 -150.11,-150.12 0,-82.9 67.21,-150.11 150.11,-150.11z"/>
   <path class="fil2 str2" d="M40642.41 3319.03c82.9,0 150.11,67.21 150.11,150.11 0,82.91 -67.21,150.12 -150.11,150.12 -82.91,0 -150.12,-67.21 -150.12,-150.12 0,-82.9 67.21,-150.11 150.12,-150.11z"/>
   <path class="fil2 str2" d="M38596.18 5461.59c82.9,0 150.11,67.21 150.11,150.12 0,82.9 -67.21,150.11 -150.11,150.11 -82.91,0 -150.12,-67.21 -150.12,-150.11 0,-82.91 67.21,-150.12 150.12,-150.12z"/>
   <path class="fil2 str2" d="M40177.96 5180.07c82.9,0 150.11,67.21 150.11,150.11 0,82.91 -67.21,150.12 -150.11,150.12 -82.91,0 -150.12,-67.21 -150.12,-150.12 0,-82.9 67.21,-150.11 150.12,-150.11z"/>
   <path class="fil2 str2" d="M37153.54 5954.55c82.9,0 150.12,67.22 150.12,150.12 0,82.9 -67.22,150.11 -150.12,150.11 -82.9,0 -150.11,-67.21 -150.11,-150.11 0,-82.9 67.21,-150.12 150.11,-150.12z"/>
   <path class="fil2 str2" d="M34970.47 9194.45c82.91,0 150.12,67.21 150.12,150.11 0,82.91 -67.21,150.12 -150.12,150.12 -82.9,0 -150.11,-67.21 -150.11,-150.12 0,-82.9 67.21,-150.11 150.11,-150.11z"/>
   <path class="fil3" d="M36621.98 5232.53l2112.06 -421.36 1771.67 -1272.51c12.2,-8.79 29.23,-6.01 38.01,6.19 8.79,12.2 6.01,29.23 -6.19,38.01l-1697.6 1219.31 1360.11 -104.55c15.03,-1.12 28.14,10.16 29.25,25.19 1.12,15.04 -10.16,28.14 -25.19,29.26l-1455.2 111.86 -2126.92 424.29 0 -55.69zm0 218.49l1828.72 123.51c-3.03,11.89 -4.64,24.35 -4.64,37.18 0,5.84 0.35,11.6 1,17.27l-1825.08 -123.27 0 -54.69zm2114.83 108.09l1286.6 -227.45c14.86,-2.59 29.01,7.35 31.6,22.21 2.59,14.86 -7.35,29.02 -22.21,31.61l-1286.52 227.43 0.01 -1.2c0,-18.51 -3.36,-36.23 -9.48,-52.6zm-23.28 146.2l577.52 665.3c9.85,11.38 8.6,28.6 -2.78,38.44 -11.38,9.85 -28.6,8.61 -38.44,-2.77l-577.46 -665.22c15.81,-9.33 29.76,-21.47 41.16,-35.75zm-248.23 -20.04l-1163.24 397.48c-2.71,-18.53 -8.81,-35.96 -17.64,-51.64l1163.24 -397.49c2.71,18.53 8.81,35.96 17.64,51.65zm-1166.95 459.05l2138.09 661.65c14.38,4.42 22.46,19.67 18.04,34.06 -2.04,6.63 -6.37,11.92 -11.86,15.26 -6.42,3.92 -14.44,5.17 -22.2,2.79l-2146.18 -664.15c10.89,-14.71 19.16,-31.48 24.11,-49.61zm-56.45 81.7l1103.55 1413.56 -71.39 0 -1085.63 -1388.88c19.59,-4.67 37.69,-13.17 53.47,-24.68zm-222.86 -54.64l-397.06 105.6 0 -56.44 382.12 -101.63c1.77,18.7 6.95,36.4 14.94,52.47z"/>
   <path class="fil2 str2" d="M39545.64 6758.32c64.19,0 116.24,52.04 116.24,116.23 0,64.2 -52.05,116.24 -116.24,116.24 -64.19,0 -116.24,-52.04 -116.24,-116.24 0,-64.19 52.05,-116.23 116.24,-116.23z"/>
   <path class="fil2 str3" d="M39343.64 6370.31c64.19,0 116.23,52.04 116.23,116.23 0,64.2 -52.04,116.24 -116.23,116.24 -64.2,0 -116.24,-52.04 -116.24,-116.24 0,-64.19 52.04,-116.23 116.24,-116.23z"/>
   <path class="fil2 str4" d="M40326.56 4595.98c64.19,0 116.23,52.04 116.23,116.23 0,64.2 -52.04,116.24 -116.23,116.24 -64.2,0 -116.24,-52.04 -116.24,-116.24 0,-64.19 52.04,-116.23 116.24,-116.23z"/>
   <path class="fil2 str5" d="M40642.41 3319.03c82.9,0 150.11,67.21 150.11,150.11 0,82.91 -67.21,150.12 -150.11,150.12 -82.91,0 -150.12,-67.21 -150.12,-150.12 0,-82.9 67.21,-150.11 150.12,-150.11z"/>
   <path class="fil2 str3" d="M38596.18 5461.59c82.9,0 150.11,67.21 150.11,150.12 0,82.9 -67.21,150.11 -150.11,150.11 -82.91,0 -150.12,-67.21 -150.12,-150.11 0,-82.91 67.21,-150.12 150.12,-150.12z"/>
   <path class="fil2 str6" d="M40177.96 5180.07c82.9,0 150.11,67.21 150.11,150.11 0,82.91 -67.21,150.12 -150.11,150.12 -82.91,0 -150.12,-67.21 -150.12,-150.12 0,-82.9 67.21,-150.11 150.12,-150.11z"/>
   <path class="fil2 str2" d="M37153.54 5954.55c82.91,0 150.12,67.21 150.12,150.12 0,82.9 -67.21,150.11 -150.12,150.11 -82.91,0 -150.11,-67.21 -150.11,-150.11 0,-82.91 67.2,-150.12 150.11,-150.12z"/>
   <path class="fil4" d="M31751.16 9369.24l-617.09 397.05 -439.72 661.72c-7.55,13.03 -24.24,17.48 -37.27,9.93 -13.02,-7.54 -17.47,-24.23 -9.92,-37.26l443.05 -667.46c2.25,-3.89 5.32,-7.01 8.87,-9.28l622.54 -400.57c6.12,17.6 16.34,33.28 29.54,45.87zm-5.18 -162.87l-485.52 -726.39 -2.04 -0.88 -564.73 2.68c-15.03,0.06 -27.27,-12.08 -27.33,-27.11 -0.06,-15.04 12.08,-27.28 27.11,-27.34l572.57 -2.72 867.77 -580.01 27.34 47.27 -848.96 567.44 479.07 716.74c-17.44,6.43 -32.91,16.92 -45.28,30.32zm140.58 -23.55c803.9,-895.36 783.23,-798.6 40.41,36.15 -10.41,-15 -24.26,-27.43 -40.41,-36.15z"/>
   <path class="fil2 str7" d="M31831.42 9168.93c64.19,0 116.23,52.04 116.23,116.23 0,64.2 -52.04,116.24 -116.23,116.24 -64.2,0 -116.24,-52.04 -116.24,-116.24 0,-64.19 52.04,-116.23 116.24,-116.23z"/>
   <path class="fil2 str2" d="M33884.35 8266.69c82.91,0 150.12,67.21 150.12,150.12 0,82.9 -67.21,150.11 -150.12,150.11 -82.9,0 -150.11,-67.21 -150.11,-150.11 0,-82.91 67.21,-150.12 150.11,-150.12z"/>
   <path class="fil5" d="M30726.02 14796.31l896.33 -730.42 -0.82 -2.68 56.93 0 0.96 3.17c3.74,10.55 0.69,22.77 -8.49,30.23l-910.52 741.99 -34.39 -42.29z"/>
   <polygon class="fil6" points="20792.52,3314.36 22642.21,4809.52 25581.58,5395.89 30116.9,8427.22 30693.58,8427.22 30693.58,10442.66 30757.04,14834.96 29860.34,14048.13 30180.54,12990.51 29720.41,13821.73 29283.85,13395.02 29787.98,12590.54 29110.23,13166.76 28847.76,12805.8 29526.02,12250.79 28727.25,12618.25 28557.36,12261.62 30044.07,11724.34 30055.31,11436.31 29542,10469.45 30093.35,10817.61 30330.5,11338.13 30320.09,10706.29 29234.64,10060.13 29251.83,10640.14 28523.03,10654.45 28507.29,9921.11 28189.64,10644.08 27239.52,10557.83 27632.88,9718.08 26708.85,10487.57 25489.33,10147.57 26583.15,9240.72 25055.15,9943.05 23877.04,9165.47 25736.14,8390.58 23351.46,8802.06 22246.95,7440.16 25238.78,7320.55 21865.24,6833.76 22116.73,6361.11 21359.06,5331.23 "/>
   <polygon class="fil7" points="30122.96,8564.12 30694.37,8503.67 30697.14,10689.19 30194.68,9917.67 29453.29,9428.33 28153.6,8012.03 25266.31,5373.49 25237.11,5327.18 25571.32,5387.87 "/>
   <polygon class="fil8" points="30116.9,8427.22 30693.58,8427.22 30693.58,10442.66 30273.36,9719.56 29555.75,9257.83 28313.96,7912.22 25581.58,5395.89 "/>
  </g>
 </g>
</svg>
